PathFileType	4	(X/Y/Z)	Patient4_TMGait_0pt3_02_left_10.trc.trc
DataRate	CameraRate	NumFrames	NumMarkers	Units	OrigDataRate	OrigDataStartFrame	OrigNumFrames
50.359712230216	50.359712230216	6	33	mm	50.359712230216	53	       141
Frame#	Time	Sacral			L.Shoulder			Chest			R.Shoulder			Neck			R.ASIS			L.ASIS			R.Thigh.Superior			R.Thigh.Lateral			R.Thigh.Inferior			R.Patella			L.Thigh.Superior			L.Thigh.Lateral			L.Thigh.Inferior			L.Patella			L.Shank.Superior			L.Shank.Lateral			L.Shank.Inferior			R.Shank.Superior			R.Shank.Lateral			R.Shank.Inferior			R.Heel			R.Midfoot.Superior			R.Midfoot.Lateral			R.Toe			L.Heel			L.Midfoot.Lateral			L.Midfoot.Superior			L.Toe			L.Elbow			L.Wrist			R.Elbow			R.Wrist			
		X1	Y1	Z1	X2	Y2	Z2	X3	Y3	Z3	X4	Y4	Z4	X5	Y5	Z5	X6	Y6	Z6	X7	Y7	Z7	X8	Y8	Z8	X9	Y9	Z9	X10	Y10	Z10	X11	Y11	Z11	X12	Y12	Z12	X13	Y13	Z13	X14	Y14	Z14	X15	Y15	Z15	X16	Y16	Z16	X17	Y17	Z17	X18	Y18	Z18	X19	Y19	Z19	X20	Y20	Z20	X21	Y21	Z21	X22	Y22	Z22	X23	Y23	Z23	X24	Y24	Z24	X25	Y25	Z25	X26	Y26	Z26	X27	Y27	Z27	X28	Y28	Z28	X29	Y29	Z29	X30	Y30	Z30	X31	Y31	Z31	X32	Y32	Z32	X33	Y33	Z33	

53	20.442571428571	732.166667385889	994.562745086271	454.510403947014	898.335829932610	1415.850717560665	248.112219203843	1010.622372190444	1353.804488725098	405.673508367783	939.696755055134	1437.254274125436	579.510352540024	891.346782997280	1485.434503706176	403.595873664529	965.184991350144	935.709681579427	563.096232286911	944.360611429200	950.400687301888	290.385208097945	1015.887842179799	736.617928085363	543.763737118367	947.491595195498	625.420182574492	614.724641040019	1028.135576207684	569.536378789063	536.549046416383	1023.795274826983	458.249293439139	562.187749722266	1011.261057950960	746.709734267839	335.559687961979	936.886767148726	619.554119019131	282.364594553155	1026.302761060175	552.385717987873	352.704047873158	1031.571286032891	478.263841847478	364.072646267584	993.986373016003	403.707844817607	359.078938986970	894.705429793960	299.145299330477	305.756575244694	923.555111991790	185.224574719425	381.938344209469	940.700715883785	394.628169407463	571.654010968736	816.307475465022	367.134970396442	631.945184175851	795.169390401609	257.146659915660	587.176150488392	590.043751636513	211.335209908300	556.431004850151	750.972653891959	138.501239090549	606.216182769859	640.736967455768	149.151176289543	633.669216038524	804.626361952797	31.090406408463	636.759187053099	777.115847668255	39.401049146117	415.471149951657	855.518986601204	36.651373571737	339.424254330690	938.554990645335	95.162172417259	371.934500117237	1067.482410237144	40.010959453272	349.161271157426	920.287942568178	1062.017362847884	134.217015721166	1053.812861165902	838.385387654961	146.682636226701	1041.419236869589	1105.471240177901	705.426229579844	1264.110535370811	975.859862730553	690.487139485149	
54	20.462428571429	730.309735768627	991.521161112288	450.093527463176	899.578551697830	1414.379581012257	247.376729554284	1009.295104883888	1351.701460626058	406.479573530029	935.496565631935	1433.589989064231	579.921800935913	890.385621806513	1483.327699132584	403.282074703177	962.787664130110	933.798661212050	561.227572185957	944.616657604038	948.419867908202	288.237907353505	1019.296026190058	737.830482690842	541.126576650339	954.695638363511	625.180117720352	612.324876972864	1037.017205194721	571.239326886411	533.981404982353	1034.964598326560	458.973620973486	559.975823533524	1011.822799119973	744.883042780004	333.771405357032	938.017305709126	617.301475897881	281.003581394253	1027.329319036858	550.499817977327	352.166668774810	1032.630088614998	476.005319805889	363.810295997283	993.702475385885	401.279729262455	358.970868809813	892.971541296155	298.074907742185	305.514378442778	919.452865458778	183.973969981849	382.062709512297	950.721720939596	395.301761941200	569.408259048188	824.964663151847	370.538119315196	628.685214941842	802.184951837858	260.595678841874	584.810727787883	596.621027389067	218.968811551821	552.298241744700	755.756005373815	142.856749391587	604.391121133188	645.201378018592	156.135957088633	630.605010087097	806.669157305293	31.634805653525	636.756971124537	771.165109041035	39.368822100707	415.435380137834	849.567961095067	36.604346656490	339.364963831185	932.608600719940	95.028437535847	372.015644892523	1061.538520954948	39.907582305095	349.108106466092	931.498861250526	1061.664631850557	132.375081956085	1068.631885130199	840.334744395830	145.802077135362	1022.613234570140	1096.052505400896	704.520925148157	1231.508197547317	944.244228770258	695.735747438798	
55	20.482285714286	728.505290465174	988.902244116410	445.865803737606	901.049705044599	1413.264244746714	247.037013173320	1008.032344823738	1349.916722602738	407.719655351960	931.165332075777	1430.183728141761	580.650932740222	889.539500154573	1481.547229823208	403.326866835233	960.400887195598	932.216895819019	559.634237697436	944.891431778711	946.768180267865	286.375570552081	1022.398544834325	739.495929929501	538.606261298721	961.579156637056	625.502218651992	610.054273448057	1045.384336958242	573.538007137788	531.474086084495	1045.759537659248	460.480148850926	557.760179119830	1012.038749022150	743.127500952388	332.186321725860	938.544432358254	615.276383440521	279.796174427468	1027.564633336908	548.693100939897	351.799660423233	1032.783340655011	473.905758468631	363.719866364809	992.666457897885	399.100027787672	358.949512684212	890.700667038639	297.093952503243	305.314030272606	915.084623070715	182.865298453135	382.184897550440	960.761436500835	396.459049473075	567.205210288092	833.841529952826	373.494272678288	625.400289335145	810.222282128201	263.450753720487	582.353859491711	604.436416366817	224.026850894387	548.099707787638	762.542249634504	146.533567822358	602.480806957445	651.604951577286	161.217250169989	627.490291211667	811.866332655875	32.510713414286	636.649795651261	765.191197828016	39.335303693409	415.388983992947	843.605235303909	36.556971241372	339.298376621686	926.642956053320	94.902723439283	372.081340992332	1055.577497533745	39.838553011361	349.054811500640	942.634896182096	1061.883267546761	131.129931132539	1084.060696459889	843.383052559498	145.464377729413	1002.427290314624	1087.515149188693	703.619148566414	1195.271980766872	915.043458258223	700.522032282009	
56	20.502142857143	726.814704475960	986.861816436007	441.853156082265	902.795642995032	1412.665930973298	247.122916698350	1006.872983802663	1348.579818809786	409.403184916819	926.754259509140	1427.189780507581	581.684686769644	888.832578953073	1480.223476936309	403.749313995983	958.036802300268	931.103402663023	558.318445659622	945.218065397368	945.554384283763	284.816416374317	1025.079882000036	741.646313499262	536.225777227066	967.942030043722	626.440833400121	607.927627176316	1052.987292527148	576.432932920932	529.035557975052	1055.919829547104	462.811122506951	555.567208585040	1011.864332674340	741.512918045401	330.847194658373	938.377507091290	613.577491398511	278.752695399474	1026.880248809212	547.028685307261	351.596513226866	1031.878704698017	472.039354414185	363.789815083130	990.757462362536	397.253448334553	358.998074095541	887.810435708172	296.247317258025	305.141427084514	910.414271529722	181.941980809603	382.296768770279	970.649290915642	398.104618895697	565.094753626220	842.854169008014	375.810572312449	622.232863045833	819.334627327719	265.497852573655	579.922303328014	613.593041267008	226.020079548184	544.096661798672	771.552172645989	149.245717959454	600.602957160844	660.179682999267	163.939597397966	624.525640120282	820.639435067506	33.613207433963	636.446117879853	759.192819053660	39.305217420611	415.332431039473	837.631209029244	36.512397832786	339.227928977603	920.660954069235	94.790615378217	372.127982126906	1049.601241494752	39.795269862303	349.004756885014	953.650379004891	1062.864791630613	130.363019972062	1100.067464539252	847.786633948585	145.627840353209	980.946115455432	1080.188402126727	702.761897787897	1155.873437494718	888.976368091043	704.781507582514	
57	20.522000000000	725.281347364918	985.513576126976	438.069567469648	904.860150865533	1412.700761474204	247.656149546074	1005.848450360499	1347.776593721116	411.534055131308	922.312238180004	1424.726631954489	583.004277787438	888.285986877981	1479.447688186331	404.561172324429	955.689473012920	930.555287324635	557.286758566169	945.629361725656	944.856158049633	283.578649573830	1027.246143413632	744.277865967004	534.015934205308	973.605948099186	627.999846966228	605.960802217592	1059.619958328403	579.877294392504	526.684585050893	1065.221243546390	465.957508181508	553.428650169920	1011.269026941985	740.094294630170	329.787636297383	937.456783070265	612.280854765803	277.872350860248	1025.192462990304	545.557495180058	351.539256621430	1029.816682337463	470.466531590373	363.995429628113	987.898677479045	395.802056331296	359.092102833698	884.249260406754	295.567788881924	304.977407380893	905.418522286711	181.233595713886	382.388891284312	980.236741850940	400.207588362936	563.123504580789	851.949096761717	377.315714216475	619.324817752001	829.561597486380	266.574653010984	577.633606560266	624.224637804929	224.646618378947	540.533829449695	782.934695470131	150.779093545790	598.868300986565	671.119691116023	164.008066242846	621.900049670675	833.239439229258	34.817032480080	636.168947132213	753.170032045116	39.280241115304	415.266074796972	831.645824225726	36.471742800312	339.155357158018	914.664229406797	94.696505832614	372.151867249336	1043.611326563012	39.771237732490	348.960948004159	964.521194842578	1064.763934008118	129.942830151077	1116.602222998262	853.749612401602	146.244198908587	958.324964935585	1074.368052221388	701.982664287470	1113.935524834536	866.630734119184	708.467884242080	
58	20.541857142857	723.925544515721	984.921931052516	434.514749948267	907.277534259296	1413.427021301179	248.649255517359	1004.979788321604	1347.542769586997	414.109645903212	917.883158761030	1422.869041288693	584.586009460123	887.915856874440	1479.264260612880	405.764973581070	953.337539626784	930.617457994159	556.549665783703	946.151457709357	944.712329851783	282.679968408235	1028.827567547730	747.347700427918	532.018287438855	978.417935423418	630.132756938047	604.177448693993	1065.125722911694	583.778510521103	524.458506159706	1073.479323560728	469.859978740528	551.388454828994	1010.236590985865	738.905563583845	329.025930412264	935.754758260697	611.433934969842	277.141819906999	1022.464912289066	544.313723974495	351.596605373189	1026.554639055933	469.228742429857	364.297274618338	984.060322917637	394.781134461855	359.199675672610	879.998486303161	295.073534593570	304.798445687651	900.087940003698	180.754524327790	382.450366607893	989.396517296640	402.708737160809	561.338933170485	861.098244955445	377.882566196636	616.807583411237	840.919847560836	266.594965910191	575.598566144270	636.483594928815	219.822021962984	537.615903128934	796.750788746342	151.021468616812	597.369281294779	684.565082265315	161.320512052310	619.770544604180	849.722168664940	36.022264809138	635.848801737461	747.124748646077	39.260077952795	415.189824477826	825.648759522866	36.434416014750	339.080968008996	908.653567845146	94.623184568597	372.149480567815	1037.609097450969	39.761985776112	348.925743293806	975.251181106148	1067.682496315689	129.741827459088	1133.599908209506	861.402486687675	147.262050289258	934.785238815278	1070.289728089689	701.296698551883	1070.195568391815	848.422100124117	711.554677570485	
